<svg width="323" height="164" viewBox="0 0 323 164" fill="none" xmlns="http://www.w3.org/2000/svg">
<path d="M127.734 114.875C126.34 113.589 124.748 112.536 123.019 111.756L117.674 109.329L104.37 114.171L136.298 130.707C137.042 131.093 137.857 131.32 138.692 131.374C139.528 131.428 140.366 131.308 141.152 131.021L142.41 130.569C142.582 130.506 142.735 130.401 142.854 130.262C142.974 130.124 143.055 129.957 143.092 129.778C143.129 129.599 143.119 129.413 143.063 129.239C143.007 129.065 142.908 128.908 142.774 128.783L127.734 114.875Z" fill="#A9D4E2"/>
<path opacity="0.3" d="M127.734 114.875C126.34 113.589 124.748 112.536 123.019 111.756L117.674 109.329L104.37 114.171L136.298 130.707C137.042 131.093 137.857 131.32 138.692 131.374C139.528 131.428 140.366 131.308 141.152 131.021L142.41 130.569C142.582 130.506 142.735 130.401 142.854 130.262C142.974 130.124 143.055 129.957 143.092 129.778C143.129 129.599 143.119 129.413 143.063 129.239C143.007 129.065 142.908 128.908 142.774 128.783L127.734 114.875Z" fill="white"/>
<path d="M128.25 86.6056L115.926 33.9405L103.188 38.5682L100.421 98.7785L129.281 89.4225L128.25 86.6056Z" fill="#A9D4E2"/>
<path opacity="0.6" d="M128.25 86.6056L115.926 33.9405L103.188 38.5682L100.421 98.7785L129.281 89.4225L128.25 86.6056Z" fill="white"/>
<path d="M205.022 107.783L308.491 155.493C310.014 156.199 311.713 156.435 313.37 156.172L316.552 155.657C316.979 155.585 317.38 155.4 317.71 155.12C318.041 154.84 318.29 154.476 318.43 154.066C318.571 153.656 318.598 153.216 318.508 152.792C318.419 152.368 318.217 151.976 317.923 151.658C316.93 150.612 315.885 149.617 314.791 148.677C309.233 143.874 248.293 92.0886 248.293 92.0886L205.022 107.783Z" fill="#A9D4E2"/>
<path opacity="0.3" d="M205.022 107.783L308.491 155.493C310.014 156.199 311.713 156.435 313.37 156.172L316.552 155.657C316.979 155.585 317.38 155.4 317.71 155.12C318.041 154.84 318.29 154.476 318.43 154.066C318.571 153.656 318.598 153.216 318.508 152.792C318.419 152.368 318.217 151.976 317.923 151.658C316.93 150.612 315.885 149.617 314.791 148.677C309.233 143.874 248.293 92.0886 248.293 92.0886L205.022 107.783Z" fill="white"/>
<path d="M81.8601 107.481C81.4416 108.189 81.189 108.982 81.1213 109.802C81.0535 110.622 81.1723 111.446 81.4688 112.213C81.7653 112.981 82.2317 113.671 82.8331 114.232C83.4344 114.793 84.1551 115.211 84.941 115.453C98.9498 119.754 149.641 131.512 222.653 104.94C305.523 74.7598 325.028 60.1725 322.839 48.9177C322.635 47.9892 322.287 47.0983 321.808 46.2769C318.878 41.0456 304.605 20.8623 268.225 34.0537L101.327 94.8174C101.327 94.8174 86.3746 99.9732 81.8601 107.481Z" fill="#A9D4E2"/>
<path d="M133.129 83.2482L268.225 34.0538C304.605 20.8247 318.828 41.0079 321.808 46.2392C322.287 47.0606 322.635 47.9516 322.839 48.88C325.028 60.1978 305.523 74.7599 222.653 104.903C149.641 131.474 98.9498 119.716 84.941 115.416C84.1551 115.173 83.4344 114.755 82.8331 114.194C82.2317 113.633 81.7653 112.943 81.4688 112.176C81.1723 111.409 81.0535 110.584 81.1213 109.764C81.189 108.945 81.4416 108.151 81.8601 107.443C86.3746 99.8978 101.327 94.7797 101.327 94.7797L133.129 83.2482Z" fill="#A9D4E2"/>
<path opacity="0.1" d="M259.938 64.6871C199.703 87.6998 120.969 112.222 89.795 116.811C108.582 121.615 156.444 129.035 222.653 104.94C305.184 74.9108 324.864 60.2858 322.852 49.0561C314.993 48.1129 297.752 50.2381 259.938 64.6871Z" fill="black"/>
<g opacity="0.7">
<path d="M285.231 41.6736L109.672 103.911L110.092 105.097L285.651 42.8588L285.231 41.6736Z" fill="black"/>
</g>
<path d="M166.718 87.9513L196.345 77.1743C197.845 76.6422 199.103 75.585 199.884 74.198C200.665 72.811 200.918 71.1881 200.596 69.6292C199.917 66.4979 197.59 62.7128 191.164 59.657L41.7073 0.754518C40.7453 0.376465 39.7228 0.176203 38.6893 0.16348L26.9063 1.38337e-07C26.7128 -0.000107541 26.5244 0.0626494 26.3697 0.178816C26.215 0.294982 26.1022 0.458275 26.0482 0.644108C25.9943 0.829941 26.0023 1.02825 26.0708 1.20919C26.1394 1.39013 26.2649 1.54391 26.4284 1.64736L166.718 87.9513Z" fill="#A9D4E2"/>
<path opacity="0.3" d="M166.718 87.9513L196.345 77.1743C197.845 76.6422 199.103 75.585 199.884 74.198C200.665 72.811 200.918 71.1881 200.596 69.6292C199.917 66.4979 197.59 62.7128 191.164 59.657L41.7073 0.754518C40.7453 0.376465 39.7228 0.176203 38.6893 0.16348L26.9063 1.38337e-07C26.7128 -0.000107541 26.5244 0.0626494 26.3697 0.178816C26.215 0.294982 26.1022 0.458275 26.0482 0.644108C25.9943 0.829941 26.0023 1.02825 26.0708 1.20919C26.1394 1.39013 26.2649 1.54391 26.4284 1.64736L166.718 87.9513Z" fill="white"/>
<path d="M99.2517 163.654H94.9007V163.025H99.2391L99.2517 163.654Z" fill="#A9D4E2"/>
<path d="M110.544 163.68V163.051C114.317 163.051 118.089 163.051 121.862 162.963V163.591C118.077 163.579 114.304 163.667 110.544 163.68Z" fill="#A9D4E2"/>
<path d="M133.129 163.428V162.799C154.206 162.422 174.804 161.655 192.158 160.963V161.592C174.804 162.321 154.218 163.051 133.129 163.428Z" fill="#A9D4E2"/>
<path d="M220.11 159.798L203.5 160.479L203.526 161.107L220.136 160.426L220.11 159.798Z" fill="#A9D4E2"/>
<path d="M231.48 159.919V159.291C239.541 158.913 247.828 158.511 256.027 158.033C273.872 157.115 287.566 156.335 300.418 155.518V156.147C287.553 156.964 273.859 157.744 256.002 158.662C247.803 159.14 239.541 159.542 231.48 159.919Z" fill="#A9D4E2"/>
<path d="M2.32665 87.8107L0 96.8987L0.609118 97.0547L2.93577 87.9666L2.32665 87.8107Z" fill="#A9D4E2"/>
<path d="M11.4602 53.0367L5.50634 75.5392L6.11419 75.7L12.068 53.1975L11.4602 53.0367Z" fill="#A9D4E2"/>
<path d="M15.1484 41.6995L14.5573 41.5989C14.5573 41.36 21.0965 17.3412 24.2277 5.39476L24.8313 5.55824C21.6875 17.4419 15.2112 41.4606 15.1484 41.6995Z" fill="#A9D4E2"/>
<g opacity="0.7">
<path d="M123.534 95.9743C122.554 96.3264 121.849 95.685 121.95 94.5533L122.126 92.4909C122.19 91.9118 122.403 91.3592 122.744 90.8874C123.086 90.4155 123.545 90.0407 124.075 89.7998C125.044 89.4477 125.748 90.0765 125.647 91.2208L125.471 93.2706C125.41 93.8502 125.199 94.4041 124.86 94.878C124.52 95.3518 124.064 95.7296 123.534 95.9743Z" fill="black"/>
<path d="M130.413 93.4592C129.445 93.8239 128.741 93.1826 128.841 92.0508L129.017 89.9885C129.081 89.411 129.292 88.8598 129.632 88.3883C129.971 87.9168 130.426 87.541 130.954 87.2974C131.935 86.9327 132.639 87.574 132.538 88.7058L132.362 90.7681C132.299 91.3472 132.086 91.8999 131.744 92.3717C131.402 92.8435 130.944 93.2183 130.413 93.4592Z" fill="black"/>
<path d="M137.304 90.9567C136.336 91.3088 135.632 90.6801 135.72 89.5357L135.908 87.486C135.97 86.9063 136.18 86.3525 136.52 85.8786C136.859 85.4047 137.316 85.027 137.845 84.7823C138.813 84.4302 139.53 85.0715 139.429 86.2033L139.241 88.2656C139.177 88.8431 138.966 89.3943 138.626 89.8658C138.287 90.3373 137.832 90.7131 137.304 90.9567Z" fill="black"/>
<path d="M144.196 88.4543C143.227 88.8065 142.51 88.1777 142.611 87.0333L142.8 84.971C142.863 84.3936 143.075 83.8424 143.414 83.3708C143.754 82.8993 144.209 82.5235 144.736 82.2799C145.705 81.9278 146.409 82.5566 146.308 83.7009L146.132 85.7507C146.071 86.3303 145.86 86.8841 145.521 87.358C145.181 87.8319 144.725 88.2096 144.196 88.4543Z" fill="black"/>
<path d="M151.087 85.9518C150.106 86.3039 149.402 85.6626 149.502 84.5308L149.678 82.4685C149.742 81.8894 149.955 81.3367 150.297 80.8649C150.638 80.3931 151.097 80.0183 151.627 79.7774C152.596 79.4253 153.3 80.054 153.199 81.1858L153.023 83.2481C152.958 83.8267 152.746 84.379 152.407 84.8523C152.068 85.3256 151.614 85.7041 151.087 85.9518Z" fill="black"/>
<path d="M203.626 66.8248C202.658 67.1769 201.954 66.5481 202.054 65.4038L202.23 63.354C202.292 62.7744 202.503 62.2206 202.842 61.7467C203.181 61.2728 203.638 60.8951 204.167 60.6503C205.148 60.2982 205.852 60.9396 205.752 62.0713L205.575 64.1337C205.512 64.7128 205.299 65.2654 204.957 65.7373C204.615 66.2091 204.157 66.5839 203.626 66.8248Z" fill="black"/>
<path d="M210.517 64.3224C209.549 64.6745 208.845 64.0332 208.946 62.9014L209.122 60.8391C209.185 60.2616 209.397 59.7104 209.736 59.2389C210.075 58.7674 210.531 58.3916 211.058 58.148C212.027 57.7959 212.743 58.4246 212.643 59.569L212.454 61.6187C212.395 62.1991 212.185 62.754 211.846 63.2283C211.506 63.7026 211.048 64.0798 210.517 64.3224Z" fill="black"/>
<path d="M217.409 61.8199C216.44 62.172 215.723 61.5307 215.824 60.3989L216.013 58.3366C216.076 57.7592 216.288 57.2079 216.627 56.7364C216.966 56.2649 217.422 55.8891 217.949 55.6455C218.918 55.2808 219.622 55.9221 219.534 57.0539L219.345 59.1163C219.28 59.6948 219.068 60.2471 218.729 60.7204C218.39 61.1937 217.935 61.5722 217.409 61.8199Z" fill="black"/>
<path d="M224.3 59.3049C223.319 59.657 222.615 59.0282 222.715 57.8839L222.892 55.8341C222.953 55.2528 223.165 54.6975 223.507 54.2233C223.849 53.7491 224.309 53.3724 224.841 53.1304C225.809 52.7783 226.513 53.4197 226.413 54.5514L226.237 56.6138C226.173 57.1912 225.961 57.7424 225.622 58.2139C225.283 58.6854 224.827 59.0612 224.3 59.3049Z" fill="black"/>
<path d="M231.179 56.8025C230.21 57.1546 229.506 56.5258 229.607 55.3815L229.783 53.3317C229.844 52.7521 230.055 52.1982 230.394 51.7244C230.734 51.2505 231.19 50.8727 231.719 50.628C232.7 50.2759 233.404 50.9047 233.304 52.049L233.128 54.0988C233.066 54.6801 232.854 55.2354 232.512 55.7096C232.17 56.1838 231.711 56.5605 231.179 56.8025Z" fill="black"/>
<path d="M238.56 54.1741C237.592 54.5262 236.875 53.8848 236.976 52.7531L237.164 50.6907C237.226 50.1125 237.436 49.5603 237.776 49.0884C238.116 48.6165 238.572 48.2412 239.101 47.9996C240.069 47.6475 240.774 48.2763 240.673 49.408L240.497 51.4704C240.432 52.0489 240.22 52.6012 239.881 53.0745C239.542 53.5478 239.087 53.9264 238.56 54.1741Z" fill="black"/>
<path d="M245.451 51.6592C244.471 52.0113 243.766 51.3825 243.867 50.2507L244.043 48.1884C244.094 47.6041 244.295 47.0431 244.628 46.5603C244.961 46.0775 245.414 45.6895 245.942 45.4344C246.91 45.0823 247.614 45.7237 247.514 46.8554L247.338 48.9178C247.287 49.4989 247.087 50.057 246.756 50.5375C246.426 51.0181 245.976 51.4045 245.451 51.6592Z" fill="black"/>
<path d="M252.33 49.1441C251.362 49.4962 250.658 48.8674 250.758 47.7231L250.934 45.6733C250.996 45.0936 251.206 44.5398 251.546 44.0659C251.885 43.5921 252.342 43.2143 252.871 42.9696C253.852 42.6175 254.556 43.2463 254.455 44.3906L254.279 46.4404C254.218 47.0217 254.006 47.577 253.664 48.0512C253.322 48.5254 252.862 48.9021 252.33 49.1441Z" fill="black"/>
<path d="M259.221 46.629C258.253 46.9811 257.549 46.3398 257.637 45.208L257.825 43.1457C257.886 42.5625 258.098 42.0052 258.439 41.5288C258.781 41.0525 259.241 40.6735 259.775 40.4294C260.743 40.0773 261.46 40.7061 261.359 41.8504L261.17 43.9002C261.112 44.4856 260.901 45.0455 260.559 45.5243C260.217 46.003 259.756 46.3839 259.221 46.629Z" fill="black"/>
<path d="M266.062 44.1139C265.094 44.4786 264.377 43.8373 264.478 42.7055L264.666 40.6431C264.729 40.0639 264.94 39.5106 265.279 39.0369C265.619 38.5632 266.075 38.1852 266.603 37.9395C267.571 37.5874 268.275 38.2287 268.175 39.3605L267.999 41.4228C267.935 42.0002 267.724 42.5515 267.384 43.023C267.045 43.4945 266.59 43.8703 266.062 44.1139Z" fill="black"/>
</g>
<path opacity="0.7" d="M294.017 32.8592C291.684 33.5548 289.516 34.7138 287.641 36.2671C287.641 36.2671 290.408 36.2042 294.357 36.3551L294.017 32.8592Z" fill="black"/>
<g opacity="0.7">
<path d="M303.336 37.009C307.129 37.3729 310.872 38.1401 314.502 39.2977C311.321 36.3101 307.483 34.1093 303.298 32.8718L303.336 37.009Z" fill="black"/>
<path d="M301.022 32.3939C299.375 32.1487 297.701 32.1487 296.054 32.3939L296.444 36.4306C297.903 36.506 299.462 36.6192 301.059 36.7575L301.022 32.3939Z" fill="black"/>
</g>
<path d="M165.46 43.3846C156.371 47.4667 147.506 52.0296 138.901 57.0539C137.687 60.3715 137.683 64.0116 138.891 67.3316C140.099 70.6517 142.441 73.4383 145.503 75.2C155.326 73.5173 165.052 71.3135 174.64 68.598C179.859 66.6991 182.047 59.5061 179.507 52.5519C176.967 45.5978 170.692 41.4857 165.46 43.3846Z" fill="#A9D4E2"/>
<path opacity="0.1" d="M165.46 43.3846C156.371 47.4667 147.506 52.0296 138.901 57.0539C137.687 60.3715 137.683 64.0116 138.891 67.3316C140.099 70.6517 142.441 73.4383 145.503 75.2C155.326 73.5173 165.052 71.3135 174.64 68.598C179.859 66.6991 182.047 59.5061 179.507 52.5519C176.967 45.5978 170.692 41.4857 165.46 43.3846Z" fill="black"/>
<path opacity="0.7" d="M177.595 53.2435C179.62 58.8017 177.872 64.5612 173.71 66.0451C169.547 67.529 164.53 64.2845 162.505 58.7389C160.48 53.1932 162.228 47.4211 166.391 45.9373C170.553 44.4534 175.52 47.6978 177.595 53.2435Z" fill="black"/>
<path d="M262.126 100.111C253.894 103.807 245.863 107.937 238.07 112.486C236.97 115.49 236.966 118.786 238.059 121.793C239.152 124.8 241.271 127.324 244.043 128.921C252.945 127.4 261.76 125.406 270.451 122.948C275.179 121.225 277.154 114.724 274.865 108.411C272.576 102.098 266.855 98.3887 262.126 100.111Z" fill="#A9D4E2"/>
<path opacity="0.1" d="M262.126 100.111C253.894 103.807 245.863 107.937 238.07 112.486C236.97 115.49 236.966 118.786 238.059 121.793C239.152 124.8 241.271 127.324 244.043 128.921C252.945 127.4 261.76 125.406 270.451 122.948C275.179 121.225 277.154 114.724 274.865 108.411C272.576 102.098 266.855 98.3887 262.126 100.111Z" fill="black"/>
<path opacity="0.7" d="M273.117 109.04C274.94 114.07 273.368 119.264 269.596 120.634C265.823 122.005 261.271 119.05 259.448 114.02C257.624 108.99 259.196 103.796 262.969 102.425C266.741 101.055 271.281 104.01 273.117 109.04Z" fill="black"/>
<path d="M100.207 101.47L51.365 79.488C50.3986 79.0568 49.3548 78.8258 48.2967 78.809L41.7575 78.7335C41.4379 78.726 41.1252 78.8275 40.8708 79.0214C40.6165 79.2152 40.4357 79.4898 40.3582 79.8C40.2806 80.1102 40.3109 80.4375 40.4441 80.7282C40.5773 81.0189 40.8055 81.2557 41.091 81.3995L88.2482 105.821L100.207 101.47Z" fill="#A9D4E2"/>
<path opacity="0.4" d="M100.207 101.47L51.365 79.488C50.3986 79.0568 49.3548 78.8258 48.2967 78.809L41.7575 78.7335C41.4379 78.726 41.1252 78.8275 40.8708 79.0214C40.6165 79.2152 40.4357 79.4898 40.3582 79.8C40.2806 80.1102 40.3109 80.4375 40.4441 80.7282C40.5773 81.0189 40.8055 81.2557 41.091 81.3995L88.2482 105.821L100.207 101.47Z" fill="white"/>
</svg>
